<?xml version="1.0" encoding="UTF-8"?>
<svg width="400px" height="91px" viewBox="0 0 400 91" version="1.1" xmlns="http://www.w3.org/2000/svg" xmlns:xlink="http://www.w3.org/1999/xlink">
    <!-- Generator: Sketch 53.2 (72643) - https://sketchapp.com -->
    <title>未知</title>
    <desc>Created with Sketch.</desc>
    <g id="未知" stroke="none" stroke-width="1" fill="none" fill-rule="evenodd">
        <g id="分组" transform="translate(4.000000, 18.000000)">
            <path d="M1.4166,60.3835 C6.8516,56.9915 12.3126,53.6855 18.3726,51.4415 C29.5726,47.2935 41.1556,44.7525 52.9256,43.0295 C65.7076,41.1595 78.5676,40.3925 91.4916,40.0095 C110.9396,39.4335 130.3796,39.5925 149.8216,39.7565 C155.8396,39.8085 161.8526,40.4845 167.9116,40.8765 C167.5556,41.8315 166.7346,41.7435 166.0536,41.7935 C157.7226,42.3975 149.3826,42.9025 141.0566,43.5775 C131.0726,44.3885 121.1026,45.3725 111.1206,46.2115 C107.3276,46.5305 103.5026,46.6955 99.7136,46.7665 C68.2836,47.3605 37.4416,51.9455 7.0716,59.9275 C5.5506,60.3265 3.9936,60.5905 2.4536,60.9165 C1.8766,61.1875 1.3496,61.3645 1.4166,60.3835" id="Fill-3" fill="#959899"></path>
            <path d="M352.047295,51.4260754 C355.221295,50.8190754 379.7543,45.7486 382.9743,45.1336 C382.7723,43.8346 381.7083,43.8236 380.9093,43.5616 C356.3863,35.4736 332.1173,26.6096 307.2203,19.6706 C288.5243,14.4596 269.6953,9.9676 250.3753,7.6736 C240.4943,6.5006 230.6093,5.4456 220.6663,5.6776 C210.3603,5.9166 200.0843,6.7686 190.1643,9.9206 C188.2123,10.5406 186.4543,10.5086 184.5443,9.6236 C182.3693,8.6146 180.0293,7.9636 177.2333,6.9706 C182.5553,4.9826 187.5563,3.7986 192.5963,2.8956 C204.5303,0.7566 216.5953,0.0256 228.6883,0.6496 C245.2173,1.4996 261.5053,4.1256 277.6123,7.9486 C302.4343,13.8416 326.3503,22.5436 350.2833,31.1996 C360.2433,34.8026 370.1563,38.5406 380.3303,41.5166 C382.5803,42.1746 384.8383,42.7996 385.8033,45.5656 C384.9913,46.1336 384.0193,46.3452332 382.9743,46.5092332 C377.075115,47.9983343 366.766114,49.6372817 352.047295,51.4260754 Z" id="Fill-5" fill="#959899"></path>
            <path d="M183.398,12.4733 C164.887,18.7633 147.952,27.5153 130.93,36.0683 C129.632,36.7203 128.342,36.9643 126.91,36.9263 C122.267,36.8023 117.615,36.9053 112.335,36.0233 C115.978,34.2463 119.132,32.6053 122.368,31.1483 C138.047,24.0893 153.763,17.1133 169.425,10.0163 C171.796,8.9423 173.927,8.7023 176.332,9.8233 C178.495,10.8303 180.808,11.5183 183.398,12.4733" id="Fill-7" fill="#959899"></path>
            <path d="M251.6329,35.8301 C263.0789,34.7481 274.5489,33.9131 285.9999,32.8721 C290.6119,32.4531 295.2059,31.8101 299.7969,31.1881 C300.7629,31.0561 302.0219,30.8471 302.1759,29.6331 C302.3109,28.5681 301.2169,28.1411 300.4249,27.6911 C295.9199,25.1261 290.8569,24.2171 285.9329,22.9421 C273.5469,19.7341 261.1109,16.7021 248.4609,14.7331 C240.4069,13.4801 219.0699,11.6341 218.1619,10.5931 C218.917715,10.5341 218.800194,10.4582193 219.7749,10.5341 C247.8289,11.6061 275.3169,16.0131 302.1089,24.5241 C304.2499,25.2051 306.2939,26.0801 308.1269,27.3891 C309.1839,28.1451 310.3879,28.8961 310.2029,30.4401 C310.0179,31.9861 308.6529,32.4761 307.4579,32.9211 C303.8389,34.2671 299.9919,34.2841 296.2139,34.5731 C283.6289,35.5381 271.0369,36.4141 258.4459,37.3051 C252.7049,37.7131 246.9659,38.2371 241.2169,38.4211 C232.0209,38.7181 222.8629,39.7691 213.6529,39.6821 C212.1419,39.7101 211.71549,39.6821 209.1959,39.1501 C223.3539,38.1991 237.5039,37.1661 251.6329,35.8301 Z" id="Fill-9" fill="#959899"></path>
            <path d="M319.7522,41.3513 C317.1612,41.5453 314.5692,41.7243 311.9772,41.9103 C311.1562,42.0683 311.9772,41.9103 301.597427,42.6227088 C317.150427,40.3137088 343.720025,39.2544571 359.357025,40.4324571 C356.618,40.4324571 352.8662,40.8363 350.9952,40.8073 C340.5782,40.8323 330.1562,40.5713 319.7522,41.3513 Z" id="Fill-11" fill="#959899"></path>
            <path d="M372.9229,53.445 C378.6589,52.784 384.4209,52.034 390.1879,53.445 L372.9229,53.445 Z" id="Fill-13" fill="#959899"></path>
            <path d="M1.4166,60.3835 L2.4536,60.9165 C1.8256,61.6305 1.0126,61.3625 0.1036,61.4505 C0.3126,60.6215 0.8876,60.5305 1.4166,60.3835" id="Fill-63" fill="#D8D8D8"></path>
        </g>
    </g>
</svg>